<svg xmlns="http://www.w3.org/2000/svg" version="1.0" preserveAspectRatio="xMidYMid meet" viewBox="77 156.09 638.1 275.83">
<metadata>
Created by MChauhan
</metadata>
<g transform="translate(0.000000,580.000000) scale(0.100000,-0.100000)" fill="#000000" stroke="none">
<path d="M3622 4102 c-171 -76 -322 -147 -335 -160 l-22 -23 -3 -475 c-3 -548 -7 -523 84 -569 43 -22 72 -29 144 -33 l90 -5 0 436 c0 283 4 446 11 464 24 65 61 86 369 219 267 115 298 130 289 146 -5 10 -17 18 -26 18 -10 0 -152 -58 -318 -129 -311 -135 -371 -155 -427 -145 -59 10 -130 36 -121 44 4 4 130 60 280 124 l272 117 37 -16 c20 -8 38 -15 40 -15 2 0 4 24 4 54 0 54 -17 87 -43 85 -7 -1 -153 -62 -325 -137z"/>
<path d="M4050 3906 c-354 -153 -364 -158 -379 -193 -8 -21 -11 -158 -9 -507 l3 -478 38 -33 c50 -43 143 -69 229 -63 54 4 109 24 383 142 176 76 326 145 333 154 16 21 18 933 2 963 -6 10 -20 19 -32 19 -12 0 -157 -59 -322 -131 -165 -72 -321 -134 -346 -139 -60 -11 -190 14 -190 37 0 5 122 61 271 126 284 123 272 120 342 92 15 -6 17 -1 17 48 0 55 -16 87 -43 87 -7 0 -140 -56 -297 -124z"/>
<path d="M5010 2710 l0 -70 1068 2 1067 3 3 68 3 67 -1071 0 -1070 0 0 -70z"/>
<path d="M770 2695 l0 -65 1070 0 1070 0 0 65 0 65 -1070 0 -1070 0 0 -65z"/>
<path d="M1175 2262 c-67 -22 -153 -108 -196 -199 -32 -64 -34 -75 -34 -173 0 -93 3 -109 24 -143 63 -103 230 -104 318 -3 48 54 78 117 62 127 -10 6 -18 -2 -29 -24 -42 -85 -90 -129 -163 -149 -91 -24 -141 27 -140 142 3 226 106 410 230 410 65 0 112 -73 113 -173 0 -40 4 -57 12 -55 10 4 26 69 52 211 8 45 -8 50 -23 7 -12 -36 -21 -37 -59 -5 -32 27 -74 45 -100 44 -9 0 -39 -8 -67 -17z"/>
<path d="M1642 2017 c-90 -133 -168 -249 -175 -257 -23 -30 -61 -50 -94 -50 -23 0 -33 -5 -33 -15 0 -13 17 -15 117 -13 82 2 118 7 121 16 2 8 -8 12 -32 12 -53 0 -52 27 2 113 l37 57 85 -2 85 -3 3 -60 c5 -92 -1 -105 -48 -105 -29 0 -40 -4 -40 -15 0 -12 20 -15 120 -15 98 0 120 3 120 14 0 10 -13 16 -37 18 l-38 3 -3 273 c-2 208 -5 272 -15 272 -6 0 -85 -109 -175 -243z m118 -2 l0 -105 -75 0 -75 0 28 43 c50 78 113 167 117 167 3 0 5 -47 5 -105z"/>
<path d="M2112 2248 c3 -7 21 -14 42 -16 29 -3 36 -7 32 -20 -3 -9 -28 -102 -56 -207 -88 -326 -75 -293 -122 -297 -23 -2 -43 -9 -46 -15 -3 -10 28 -13 132 -13 114 0 136 2 136 15 0 11 -12 15 -51 15 l-51 0 7 33 c3 17 12 52 20 77 7 25 18 64 24 86 l11 42 98 4 c74 3 107 9 139 26 117 61 140 218 39 266 -44 21 -360 24 -354 4z m318 -40 c42 -46 15 -162 -49 -208 -24 -16 -47 -21 -103 -23 -67 -2 -73 0 -72 18 1 21 53 215 61 227 2 5 35 8 73 8 58 0 72 -3 90 -22z"/>
<path d="M4535 2250 c-4 -6 12 -10 40 -10 39 0 46 -3 41 -17 -3 -10 -35 -128 -71 -263 -36 -135 -69 -253 -71 -263 -5 -15 -1 -18 22 -15 26 3 30 10 55 93 23 79 29 90 50 93 13 2 33 -4 43 -11 19 -14 19 -18 6 -71 -16 -67 -5 -102 36 -112 44 -11 104 51 129 134 10 34 -12 26 -24 -10 -15 -42 -59 -98 -77 -98 -12 0 -14 12 -8 74 6 67 5 74 -14 88 l-21 14 25 55 c35 76 39 82 54 87 10 4 11 -3 7 -26 -11 -54 46 -69 59 -15 10 39 -11 73 -45 73 -34 0 -46 -13 -86 -94 -28 -56 -33 -61 -66 -64 l-36 -3 12 48 c7 26 23 84 35 128 32 117 50 185 50 190 0 10 -139 5 -145 -5z"/>
<path d="M5375 2250 c-4 -6 12 -10 40 -10 39 0 46 -3 41 -17 -113 -391 -126 -483 -72 -530 34 -29 76 -30 133 -2 121 58 179 289 89 351 -28 19 -77 7 -116 -28 -22 -20 -40 -33 -40 -30 0 4 9 41 21 84 34 125 49 183 49 187 0 10 -139 5 -145 -5z m202 -232 c54 -69 -43 -328 -123 -328 -61 0 -66 107 -10 224 47 98 103 142 133 104z"/>
<path d="M5770 2250 c0 -5 18 -10 40 -10 22 0 40 -3 40 -6 0 -7 -141 -524 -147 -541 -4 -9 5 -13 25 -13 26 0 31 4 37 33 11 51 102 230 137 269 18 20 43 39 55 43 38 10 36 -25 -7 -127 -46 -110 -53 -183 -22 -211 10 -10 25 -17 34 -17 36 0 90 66 112 138 12 37 -9 25 -27 -17 -25 -55 -55 -91 -78 -91 -28 0 -24 26 17 122 44 102 53 167 30 203 -18 27 -53 33 -87 14 -11 -6 -40 -42 -65 -80 -25 -38 -46 -69 -48 -69 -2 0 18 79 45 176 27 96 49 179 49 185 0 5 -31 9 -70 9 -40 0 -70 -4 -70 -10z"/>
<path d="M6705 2228 c-2 -7 -15 -51 -27 -98 -23 -83 -24 -85 -56 -88 -38 -4 -43 -22 -6 -22 31 0 31 -5 -11 -159 -30 -114 -31 -145 -5 -171 43 -43 105 -9 129 71 7 22 15 47 18 55 3 8 1 14 -5 14 -6 0 -18 -22 -27 -49 -18 -56 -46 -86 -71 -77 -21 8 -17 36 27 199 l32 117 49 0 c26 0 48 5 48 10 0 6 -20 10 -45 10 -25 0 -45 1 -45 3 0 1 11 43 25 92 14 50 25 93 25 98 0 12 -50 8 -55 -5z"/>
<path d="M6969 2238 c-46 -173 -54 -193 -82 -196 -33 -4 -36 -22 -3 -22 l24 0 -36 -137 c-39 -150 -38 -186 3 -205 41 -18 72 -2 98 50 29 57 41 102 28 102 -6 0 -15 -18 -21 -40 -14 -51 -51 -96 -73 -87 -24 9 -22 25 20 180 l36 137 49 0 c26 0 48 5 48 10 0 6 -17 10 -38 10 -21 0 -41 3 -44 6 -3 3 5 44 18 92 13 48 24 90 24 94 0 7 -49 12 -51 6z"/>
<path d="M2598 2023 c-27 -29 -41 -53 -58 -98 -18 -46 7 -23 37 35 20 38 36 56 51 58 17 3 22 -2 22 -17 0 -20 -33 -154 -66 -265 -8 -27 -14 -51 -14 -53 0 -2 13 -3 29 -3 25 0 30 5 41 48 18 65 83 216 112 258 28 41 54 48 36 9 -9 -21 -9 -29 5 -42 13 -14 21 -14 42 -5 20 9 25 19 25 46 0 70 -65 76 -115 10 -16 -23 -35 -49 -41 -59 -8 -15 -10 -12 -6 18 9 78 -50 113 -100 60z"/>
<path d="M2946 2017 c-33 -35 -72 -117 -55 -117 5 0 20 22 34 49 36 71 85 101 85 51 0 -10 -16 -56 -36 -102 -44 -102 -53 -167 -30 -203 32 -49 92 -21 136 64 36 72 18 82 -20 11 -25 -46 -41 -66 -57 -68 -33 -5 -30 31 12 133 37 89 46 156 26 193 -18 33 -58 28 -95 -11z"/>
<path d="M3232 2034 c-33 -23 -86 -134 -63 -134 5 0 15 16 21 35 6 19 25 49 41 66 27 29 32 31 45 17 14 -14 12 -25 -26 -114 -48 -113 -56 -180 -25 -214 34 -38 90 -18 149 52 l35 43 -23 -85 c-40 -149 -76 -200 -143 -200 -36 0 -54 23 -34 43 26 26 0 74 -34 61 -41 -16 -34 -92 11 -113 55 -25 142 -2 182 48 34 43 66 124 106 273 64 237 62 228 33 228 -22 0 -27 -8 -47 -72 -44 -145 -135 -283 -184 -276 -33 5 -31 38 9 133 45 109 54 165 31 200 -19 29 -51 32 -84 9z"/>
<path d="M3715 2038 c-39 -21 -77 -63 -103 -113 -21 -41 -26 -65 -26 -128 -1 -74 1 -80 27 -103 44 -38 83 -32 133 20 l43 45 6 -32 c4 -18 12 -38 17 -44 28 -35 85 3 122 82 29 60 30 65 17 65 -5 0 -17 -20 -26 -44 -33 -85 -94 -113 -80 -37 5 30 52 209 71 274 4 14 -1 17 -25 17 -24 0 -31 -4 -31 -19 0 -11 -4 -23 -10 -26 -5 -3 -10 -2 -10 3 0 4 -9 18 -20 30 -23 24 -71 29 -105 10z m83 -17 c40 -25 25 -143 -31 -244 -37 -67 -77 -98 -105 -81 -37 23 -21 157 29 257 35 67 71 91 107 68z"/>
<path d="M4078 2023 c-30 -31 -73 -123 -57 -123 5 0 17 17 26 38 34 73 83 108 83 57 0 -20 -50 -215 -75 -295 -5 -17 -2 -20 22 -20 26 0 30 6 55 78 50 140 142 272 190 272 21 0 14 -47 -22 -132 -46 -110 -53 -183 -22 -211 10 -10 25 -17 34 -17 36 0 90 66 112 138 12 37 -9 25 -27 -17 -25 -55 -55 -91 -78 -91 -28 0 -24 26 17 122 61 142 55 228 -16 228 -37 0 -71 -30 -115 -105 l-36 -60 7 55 c8 74 -6 110 -44 110 -18 0 -38 -10 -54 -27z"/>
<path d="M5024 2040 c-59 -24 -115 -112 -134 -209 -12 -65 -4 -104 28 -136 43 -44 111 -25 157 42 l25 38 0 -30 c0 -37 25 -75 48 -75 10 0 28 7 40 16 27 19 75 109 70 132 -3 11 -12 -2 -26 -33 -26 -56 -49 -85 -69 -85 -21 0 -16 45 26 198 l38 142 -27 0 c-22 0 -29 -6 -35 -27 l-6 -27 -25 32 c-27 33 -64 41 -110 22z m90 -32 c22 -31 20 -82 -8 -161 -41 -115 -107 -181 -144 -143 -53 53 41 326 112 326 14 0 32 -10 40 -22z"/>
<path d="M6280 2043 c-40 -16 -83 -61 -110 -117 -53 -108 -40 -235 25 -252 41 -10 76 5 117 49 l38 42 0 -32 c0 -36 22 -63 52 -63 27 0 73 51 94 106 20 54 12 72 -10 20 -22 -52 -55 -96 -72 -96 -22 0 -17 48 21 189 19 71 35 134 35 140 0 6 -11 11 -25 11 -18 0 -26 -7 -31 -26 l-7 -26 -24 31 c-24 31 -62 39 -103 24z m86 -38 c47 -71 -59 -315 -137 -315 -40 0 -48 49 -23 149 39 158 114 235 160 166z"/>
</g>
</svg>