<svg id="SvgjsSvg1124" width="288" height="288" xmlns="http://www.w3.org/2000/svg" version="1.1" xmlns:xlink="http://www.w3.org/1999/xlink" xmlns:svgjs="http://svgjs.com/svgjs"><circle id="SvgjsCircle1131" r="144" cx="144" cy="144" fill="#5869a5" transform="matrix(0.9167,0,0,0.9167,11.995200000000011,11.995200000000011)"></circle><defs id="SvgjsDefs1125"></defs><g id="SvgjsG1126" transform="matrix(0.4652,0,0,0.4652,76.62806104125977,76.6288219985962)"><svg xmlns="http://www.w3.org/2000/svg" enable-background="new 0 0 100.5 100.5" viewBox="0 0 100.5 100.5" width="288" height="288"><path d="M55.693 49.974c-.736-.376-1.642-.086-2.019.652L43.625 70.267c-.377.738-.085 1.642.652 2.019.219.112.452.165.682.165.545 0 1.071-.298 1.336-.816l10.048-19.641C56.723 51.255 56.431 50.352 55.693 49.974zM66.208 49.224c-.586-.585-1.535-.585-2.121 0s-.586 1.536 0 2.121l9.583 9.58-9.583 9.58c-.586.585-.586 1.535 0 2.121.293.293.677.439 1.061.439s.768-.146 1.061-.439l10.645-10.641c.281-.281.439-.663.439-1.061s-.158-.779-.439-1.061L66.208 49.224zM35.911 49.225c-.585-.586-1.535-.586-2.121 0L23.147 59.865c-.281.281-.439.663-.439 1.061s.158.779.439 1.061L33.79 72.627c.293.293.677.439 1.061.439s.768-.146 1.061-.439c.586-.586.586-1.535 0-2.121l-9.581-9.58 9.581-9.58C36.497 50.76 36.497 49.811 35.911 49.225z" fill="#ffffff" class="color000 svgShape"></path><path d="M95.874,8.414H4.126c-0.829,0-1.5,0.671-1.5,1.5v80.173c0,0.828,0.671,1.5,1.5,1.5h91.748c0.828,0,1.5-0.672,1.5-1.5V9.914
		C97.374,9.085,96.702,8.414,95.874,8.414z M94.374,11.414v18.862H5.626V11.414H94.374z M5.626,88.587V33.276h88.748v55.311H5.626z" fill="#ffffff" class="color000 svgShape"></path><path d="M13.562 21.851h6.89c.829 0 1.5-.671 1.5-1.5s-.671-1.5-1.5-1.5h-6.89c-.829 0-1.5.671-1.5 1.5S12.733 21.851 13.562 21.851zM28.326 21.851h6.89c.829 0 1.5-.671 1.5-1.5s-.671-1.5-1.5-1.5h-6.89c-.829 0-1.5.671-1.5 1.5S27.498 21.851 28.326 21.851z" fill="#ffffff" class="color000 svgShape"></path></svg></g></svg>