<svg id="SvgjsSvg1138" width="288" height="288" xmlns="http://www.w3.org/2000/svg" version="1.1" xmlns:xlink="http://www.w3.org/1999/xlink" xmlns:svgjs="http://svgjs.com/svgjs"><circle id="SvgjsCircle1144" r="144" cx="144" cy="144" fill="#5869a5" transform="matrix(0.9167,0,0,0.9167,11.995200000000011,11.995200000000011)"></circle><defs id="SvgjsDefs1139"></defs><g id="SvgjsG1140" transform="matrix(0.6,0,0,0.6,56.37629852294923,57.86288070678711)"><svg xmlns="http://www.w3.org/2000/svg" enable-background="new 0 0 100.354 100.352" viewBox="0 0 100.354 100.352" width="288" height="288"><path d="M16.06,8.94v82.93h66.102V8.94H16.06z M79.161,88.87H19.059V11.94h60.102V88.87z" fill="#ffffff" class="color000 svgShape"></path><path d="M58.666 61.937c1.36-1.914 2.168-4.245 2.168-6.766 0-6.465-5.259-11.725-11.723-11.725s-11.724 5.26-11.724 11.725c0 2.522.809 4.854 2.17 6.768l-7.639 10.932c-.354.507-.361 1.179-.018 1.693.343.513.966.762 1.57.631l5.838-1.29 1.06 5.456c.122.624.623 1.104 1.251 1.197.074.011.148.017.222.017.548 0 1.062-.301 1.324-.796l5.945-11.192 5.948 11.192c.263.495.776.796 1.324.796.073 0 .147-.005.222-.017.628-.094 1.13-.573 1.251-1.197l1.062-5.456 5.83 1.289c.604.132 1.227-.117 1.571-.631.343-.514.336-1.186-.017-1.693L58.666 61.937zM49.11 46.446c4.81 0 8.723 3.914 8.723 8.725 0 4.808-3.913 8.719-8.723 8.719s-8.724-3.911-8.724-8.719C40.387 50.361 44.3 46.446 49.11 46.446zM42.505 74.628l-.544-2.805c-.077-.397-.312-.746-.649-.968-.338-.222-.751-.297-1.146-.211l-3.584.792 5.06-7.241c1.45 1.201 3.192 2.061 5.103 2.454L42.505 74.628zM58.063 70.645c-.394-.086-.808-.011-1.146.21-.338.222-.572.571-.649.968l-.547 2.809-4.242-7.982c1.911-.393 3.654-1.254 5.103-2.455l5.057 7.242L58.063 70.645zM31.258 31.076h35.244c.829 0 1.5-.671 1.5-1.5s-.671-1.5-1.5-1.5H31.258c-.829 0-1.5.671-1.5 1.5S30.429 31.076 31.258 31.076z" fill="#ffffff" class="color000 svgShape"></path></svg></g></svg>